<svg width="962" height="200" xmlns="http://www.w3.org/2000/svg" viewBox="0 0 1121 241">
<!--Background grid to resemble GitHub progress board-->
  <defs>
    <pattern id="smallGrid" width="5" height="5" patternUnits="userSpaceOnUse">
      <path d="M 10 0 L 0 0 0 10" fill="none" stroke="lightgrey" stroke-width="0.5"/>
    </pattern>
    <pattern id="grid" width="80" height="80" patternUnits="userSpaceOnUse">
      <rect width="80" height="80" fill="url(#smallGrid)"/>
      <path d="M 80 0 L 0 0 0 80" fill="none" stroke="grey" stroke-width="1"/>
    </pattern>
  </defs>
  <rect width="100%" height="100%" fill="url(#grid)"/>
<!--Dots forming the text "C# Developer"-->
  <g id="text">
<!--C-->
    <circle cx="98" cy="94" r="5" fill="green"/>
    <circle cx="95" cy="102" r="5" fill="green"/>
    <circle cx="95" cy="111" r="5" fill="green"/>
    <circle cx="95" cy="120" r="5" fill="green"/>
    <circle cx="95" cy="129" r="5" fill="green"/>
    <circle cx="96" cy="138" r="5" fill="green"/>
    <circle cx="99" cy="144" r="5" fill="green"/>
	<circle cx="106" cy="90" r="5" fill="green"/>
    <circle cx="115" cy="90" r="5" fill="green"/>
    <circle cx="124" cy="90" r="5" fill="green"/>
    <circle cx="133" cy="90" r="5" fill="green"/>
    <circle cx="141" cy="93" r="5" fill="green"/>
    <circle cx="145" cy="100" r="5" fill="green"/>
	<circle cx="145" cy="109" r="5" fill="green"/>
    <circle cx="115" cy="150" r="5" fill="green"/>
	<circle cx="106" cy="149" r="5" fill="green"/>
    <circle cx="124" cy="150" r="5" fill="green"/>
    <circle cx="133" cy="150" r="5" fill="green"/>
    <circle cx="142" cy="147" r="5" fill="green"/>
    <circle cx="145" cy="140" r="5" fill="green"/>
	<circle cx="145" cy="131" r="5" fill="green"/>
<!--#-->
<!--Vertical lines-->
    <circle cx="180" cy="90" r="5" fill="green"/>
    <circle cx="180" cy="100" r="5" fill="green"/>
    <circle cx="180" cy="110" r="5" fill="green"/>
    <circle cx="180" cy="120" r="5" fill="green"/>
    <circle cx="180" cy="130" r="5" fill="green"/>
    <circle cx="180" cy="140" r="5" fill="green"/>
    <circle cx="180" cy="150" r="5" fill="green"/>
    <circle cx="200" cy="90" r="5" fill="green"/>
    <circle cx="200" cy="100" r="5" fill="green"/>
    <circle cx="200" cy="110" r="5" fill="green"/>
    <circle cx="200" cy="120" r="5" fill="green"/>
    <circle cx="200" cy="130" r="5" fill="green"/>
    <circle cx="200" cy="140" r="5" fill="green"/>
    <circle cx="200" cy="150" r="5" fill="green"/>
    <circle cx="220" cy="90" r="5" fill="green"/>
    <circle cx="220" cy="100" r="5" fill="green"/>
    <circle cx="220" cy="110" r="5" fill="green"/>
    <circle cx="220" cy="120" r="5" fill="green"/>
    <circle cx="220" cy="130" r="5" fill="green"/>
    <circle cx="220" cy="140" r="5" fill="green"/>
    <circle cx="220" cy="150" r="5" fill="green"/>
<!--Horizontal lines-->
    <circle cx="170" cy="110" r="5" fill="green"/>
    <circle cx="190" cy="110" r="5" fill="green"/>
    <circle cx="210" cy="110" r="5" fill="green"/>
    <circle cx="230" cy="110" r="5" fill="green"/>
    <circle cx="170" cy="130" r="5" fill="green"/>
    <circle cx="190" cy="130" r="5" fill="green"/>
    <circle cx="210" cy="130" r="5" fill="green"/>
    <circle cx="230" cy="130" r="5" fill="green"/>
<!--D-->
<!--Left vertical line-->
    <circle cx="330" cy="90" r="5" fill="green"/>
    <circle cx="330" cy="100" r="5" fill="green"/>
    <circle cx="330" cy="110" r="5" fill="green"/>
    <circle cx="330" cy="120" r="5" fill="green"/>
    <circle cx="330" cy="130" r="5" fill="green"/>
    <circle cx="330" cy="140" r="5" fill="green"/>
    <circle cx="330" cy="150" r="5" fill="green"/>
<!--Top horizontal line-->
    <circle cx="340" cy="90" r="5" fill="green"/>
    <circle cx="350" cy="90" r="5" fill="green"/>
    <circle cx="360" cy="90" r="5" fill="green"/>
    <circle cx="370" cy="90" r="5" fill="green"/>
    <circle cx="380" cy="90" r="5" fill="green"/>
	<circle cx="385" cy="95" r="4" fill="green"/>
<!--Bottom horizontal line-->
    <circle cx="340" cy="150" r="5" fill="green"/>
    <circle cx="350" cy="150" r="5" fill="green"/>
    <circle cx="360" cy="150" r="5" fill="green"/>
    <circle cx="370" cy="150" r="5" fill="green"/>
    <circle cx="380" cy="150" r="5" fill="green"/>
<!--Right vertical line to complete "D"-->
    <circle cx="390" cy="100" r="5" fill="green"/>
    <circle cx="390" cy="110" r="5" fill="green"/>
    <circle cx="390" cy="120" r="5" fill="green"/>
    <circle cx="390" cy="130" r="5" fill="green"/>
    <circle cx="390" cy="140" r="5" fill="green"/>
	<circle cx="385" cy="145" r="4" fill="green"/>
<!--e-->
<!--Left vertical line-->
    <circle cx="415" cy="90" r="5" fill="green"/>
    <circle cx="415" cy="100" r="5" fill="green"/>
    <circle cx="415" cy="110" r="5" fill="green"/>
    <circle cx="415" cy="120" r="5" fill="green"/>
    <circle cx="415" cy="130" r="5" fill="green"/>
    <circle cx="415" cy="140" r="5" fill="green"/>
    <circle cx="415" cy="150" r="5" fill="green"/>
<!--Top horizontal line-->
    <circle cx="425" cy="90" r="5" fill="green"/>
    <circle cx="435" cy="90" r="5" fill="green"/>
    <circle cx="445" cy="90" r="5" fill="green"/>
    <circle cx="455" cy="90" r="5" fill="green"/>
    <circle cx="465" cy="90" r="5" fill="green"/>
<!--Middle horizontal line-->
    <circle cx="425" cy="120" r="5" fill="green"/>
    <circle cx="435" cy="120" r="5" fill="green"/>
    <circle cx="445" cy="120" r="5" fill="green"/>
    <circle cx="455" cy="120" r="5" fill="green"/>
<!--Bottom horizontal line-->
    <circle cx="425" cy="150" r="5" fill="green"/>
    <circle cx="435" cy="150" r="5" fill="green"/>
    <circle cx="445" cy="150" r="5" fill="green"/>
    <circle cx="455" cy="150" r="5" fill="green"/>
    <circle cx="465" cy="150" r="5" fill="green"/>
<!--v-->
<!--Left diagonal line-->
    <circle cx="490" cy="90" r="5" fill="green"/>
    <circle cx="490" cy="100" r="5" fill="green"/>
    <circle cx="490" cy="110" r="5" fill="green"/>
    <circle cx="490" cy="120" r="5" fill="green"/>
	<circle cx="495" cy="125" r="5" fill="green"/>
    <circle cx="500" cy="130" r="5" fill="green"/>
	<circle cx="505" cy="135" r="5" fill="green"/>
    <circle cx="510" cy="140" r="5" fill="green"/>
	<circle cx="515" cy="145" r="5" fill="green"/>
    <circle cx="520" cy="150" r="5" fill="green"/>
<!--Right diagonal line-->
    <circle cx="550" cy="90" r="5" fill="green"/>
    <circle cx="550" cy="100" r="5" fill="green"/>
    <circle cx="550" cy="110" r="5" fill="green"/>
    <circle cx="550" cy="120" r="5" fill="green"/>
	<circle cx="545" cy="125" r="5" fill="green"/>
    <circle cx="540" cy="130" r="5" fill="green"/>
	<circle cx="535" cy="135" r="5" fill="green"/>
    <circle cx="530" cy="140" r="5" fill="green"/>
	<circle cx="525" cy="145" r="5" fill="green"/>
<!--e-->
<!--Left vertical line-->
    <circle cx="575" cy="90" r="5" fill="green"/>
    <circle cx="575" cy="100" r="5" fill="green"/>
    <circle cx="575" cy="110" r="5" fill="green"/>
    <circle cx="575" cy="120" r="5" fill="green"/>
    <circle cx="575" cy="130" r="5" fill="green"/>
    <circle cx="575" cy="140" r="5" fill="green"/>
    <circle cx="575" cy="150" r="5" fill="green"/>
<!--Top horizontal line-->
    <circle cx="585" cy="90" r="5" fill="green"/>
    <circle cx="595" cy="90" r="5" fill="green"/>
    <circle cx="605" cy="90" r="5" fill="green"/>
    <circle cx="615" cy="90" r="5" fill="green"/>
    <circle cx="625" cy="90" r="5" fill="green"/>
<!--Middle horizontal line-->
    <circle cx="585" cy="120" r="5" fill="green"/>
    <circle cx="595" cy="120" r="5" fill="green"/>
    <circle cx="605" cy="120" r="5" fill="green"/>
    <circle cx="615" cy="120" r="5" fill="green"/>
<!--Bottom horizontal line-->
    <circle cx="585" cy="150" r="5" fill="green"/>
    <circle cx="595" cy="150" r="5" fill="green"/>
    <circle cx="605" cy="150" r="5" fill="green"/>
    <circle cx="615" cy="150" r="5" fill="green"/>
    <circle cx="625" cy="150" r="5" fill="green"/>
<!--l-->
<!--Left vertical line-->
    <circle cx="655" cy="90" r="5" fill="green"/>
    <circle cx="655" cy="100" r="5" fill="green"/>
    <circle cx="655" cy="110" r="5" fill="green"/>
    <circle cx="655" cy="120" r="5" fill="green"/>
    <circle cx="655" cy="130" r="5" fill="green"/>
    <circle cx="655" cy="140" r="5" fill="green"/>
    <circle cx="655" cy="150" r="5" fill="green"/>
<!--Bottom horizontal line-->
    <circle cx="665" cy="150" r="5" fill="green"/>
    <circle cx="675" cy="150" r="5" fill="green"/>
    <circle cx="685" cy="150" r="5" fill="green"/>
    <circle cx="695" cy="150" r="5" fill="green"/>
    <circle cx="705" cy="150" r="5" fill="green"/>
<!--o-->
<!--Left vertical line-->
    <circle cx="738" cy="93" r="5" fill="green"/>
    <circle cx="735" cy="100" r="5" fill="green"/>
    <circle cx="735" cy="110" r="5" fill="green"/>
    <circle cx="735" cy="120" r="5" fill="green"/>
    <circle cx="735" cy="130" r="5" fill="green"/>
    <circle cx="735" cy="140" r="5" fill="green"/>
    <circle cx="738" cy="147" r="5" fill="green"/>
<!--Top horizontal line-->
    <circle cx="745" cy="90" r="5" fill="green"/>
    <circle cx="755" cy="90" r="5" fill="green"/>
    <circle cx="765" cy="90" r="5" fill="green"/>
    <circle cx="775" cy="90" r="5" fill="green"/>
    <circle cx="783" cy="92" r="5" fill="green"/>
<!--Bottom horizontal line-->
    <circle cx="745" cy="150" r="5" fill="green"/>
    <circle cx="755" cy="150" r="5" fill="green"/>
    <circle cx="765" cy="150" r="5" fill="green"/>
    <circle cx="775" cy="150" r="5" fill="green"/>
<!--Right vertical line-->
    <circle cx="785" cy="100" r="5" fill="green"/>
    <circle cx="785" cy="110" r="5" fill="green"/>
    <circle cx="785" cy="120" r="5" fill="green"/>
    <circle cx="785" cy="130" r="5" fill="green"/>
    <circle cx="785" cy="140" r="5" fill="green"/>
    <circle cx="782" cy="147" r="5" fill="green"/>
<!--p-->
<!--Left vertical line-->
    <circle cx="816" cy="92" r="5" fill="green"/>
    <circle cx="815" cy="100" r="5" fill="green"/>
    <circle cx="815" cy="110" r="5" fill="green"/>
    <circle cx="815" cy="120" r="5" fill="green"/>
    <circle cx="815" cy="130" r="5" fill="green"/>
    <circle cx="815" cy="140" r="5" fill="green"/>
    <circle cx="815" cy="150" r="5" fill="green"/>
<!--Top horizontal line-->
    <circle cx="825" cy="90" r="5" fill="green"/>
    <circle cx="835" cy="90" r="5" fill="green"/>
    <circle cx="845" cy="90" r="5" fill="green"/>
    <circle cx="855" cy="90" r="5" fill="green"/>
    <circle cx="862" cy="93" r="5" fill="green"/>
<!--Middle horizontal line-->
    <circle cx="825" cy="120" r="5" fill="green"/>
    <circle cx="835" cy="120" r="5" fill="green"/>
    <circle cx="845" cy="120" r="5" fill="green"/>
    <circle cx="855" cy="120" r="5" fill="green"/>
    <circle cx="862" cy="117" r="5" fill="green"/>
<!--Right vertical line-->
    <circle cx="865" cy="101" r="5" fill="green"/>
    <circle cx="865" cy="109" r="5" fill="green"/>
<!--e-->
<!--Left vertical line-->
    <circle cx="895" cy="90" r="5" fill="green"/>
    <circle cx="895" cy="100" r="5" fill="green"/>
    <circle cx="895" cy="110" r="5" fill="green"/>
    <circle cx="895" cy="120" r="5" fill="green"/>
    <circle cx="895" cy="130" r="5" fill="green"/>
    <circle cx="895" cy="140" r="5" fill="green"/>
    <circle cx="895" cy="150" r="5" fill="green"/>
<!--Top horizontal line-->
    <circle cx="895" cy="90" r="5" fill="green"/>
    <circle cx="905" cy="90" r="5" fill="green"/>
    <circle cx="915" cy="90" r="5" fill="green"/>
    <circle cx="925" cy="90" r="5" fill="green"/>
    <circle cx="935" cy="90" r="5" fill="green"/>
	<circle cx="945" cy="90" r="5" fill="green"/>
<!--Middle horizontal line-->
    <circle cx="895" cy="120" r="5" fill="green"/>
    <circle cx="905" cy="120" r="5" fill="green"/>
    <circle cx="915" cy="120" r="5" fill="green"/>
    <circle cx="925" cy="120" r="5" fill="green"/>
    <circle cx="935" cy="120" r="5" fill="green"/>
<!--Bottom horizontal line-->
    <circle cx="895" cy="150" r="5" fill="green"/>
    <circle cx="905" cy="150" r="5" fill="green"/>
    <circle cx="915" cy="150" r="5" fill="green"/>
    <circle cx="925" cy="150" r="5" fill="green"/>
    <circle cx="935" cy="150" r="5" fill="green"/>
	<circle cx="945" cy="150" r="5" fill="green"/>
<!--r-->
<!--Left vertical line-->
    <circle cx="975" cy="92" r="5" fill="green"/>
    <circle cx="975" cy="100" r="5" fill="green"/>
    <circle cx="975" cy="110" r="5" fill="green"/>
    <circle cx="975" cy="120" r="5" fill="green"/>
    <circle cx="975" cy="130" r="5" fill="green"/>
    <circle cx="975" cy="140" r="5" fill="green"/>
    <circle cx="975" cy="150" r="5" fill="green"/>
<!--Top horizontal line-->
    <circle cx="985" cy="90" r="5" fill="green"/>
    <circle cx="995" cy="90" r="5" fill="green"/>
    <circle cx="1005" cy="90" r="5" fill="green"/>
    <circle cx="1015" cy="90" r="5" fill="green"/>
    <circle cx="1023" cy="94" r="5" fill="green"/>
<!--Middle horizontal line-->
    <circle cx="984" cy="120" r="5" fill="green"/>
    <circle cx="993" cy="120" r="5" fill="green"/>
    <circle cx="1010" cy="120" r="5" fill="green"/>
    <circle cx="1019" cy="116" r="5" fill="green"/>
<!--Right vertical line-->
    <circle cx="1025" cy="101" r="5" fill="green"/>
    <circle cx="1025" cy="109" r="5" fill="green"/>
<!--Diagonal line for R-->
    <circle cx="1002" cy="120" r="5" fill="green"/>
	<circle cx="1017.5" cy="125" r="5" fill="green"/>
    <circle cx="1020" cy="134" r="5" fill="green"/>
	 <circle cx="1022.5" cy="142" r="5" fill="green"/>
    <circle cx="1025" cy="150" r="5" fill="green"/>
  </g>
  <circle id="snake" r="5" fill="blue">
    <animateMotion repeatCount="indefinite" dur="20s">
      <mpath href="#snakePath"/>
    </animateMotion>
  </circle>
</svg>
